<?xml version="1.0" encoding="UTF-8" standalone="no"?><!DOCTYPE svg PUBLIC "-//W3C//DTD SVG 1.1//EN" "http://www.w3.org/Graphics/SVG/1.1/DTD/svg11.dtd"><svg width="100%" height="100%" viewBox="0 0 4000 4000" version="1.1" xmlns="http://www.w3.org/2000/svg" xmlns:xlink="http://www.w3.org/1999/xlink" xml:space="preserve" xmlns:serif="http://www.serif.com/" style="fill-rule:evenodd;clip-rule:evenodd;stroke-linecap:round;stroke-linejoin:round;"><circle cx="2000" cy="2000" r="2000" style="fill:#525abe;"/><path d="M1741.45,1204.3c40.297,-40.536 95.154,-63.354 152.311,-63.354c117.817,0 214.765,96.949 214.765,214.765c0,117.817 -96.948,214.765 -214.765,214.765c-0.3,0 -0.601,-0.001 -0.901,-0.002l-966.443,0m1137.18,1225.23c40.296,40.536 95.153,63.354 152.311,63.354c117.816,-0 214.765,-96.949 214.765,-214.765c-0,-117.817 -96.949,-214.765 -214.765,-214.765c-0.301,-0 -0.601,0.001 -0.902,0.002l-1288.59,-0m1689.13,-888.053c50.306,-50.179 118.532,-78.389 189.586,-78.389c147.271,0 268.457,121.186 268.457,268.456c-0,147.089 -120.887,268.193 -267.976,268.456l-1879.19,-0" style="fill:none;fill-rule:nonzero;stroke:#fff;stroke-width:214.76px;"/></svg>