<?xml version="1.0" encoding="UTF-8" standalone="no"?><!DOCTYPE svg PUBLIC "-//W3C//DTD SVG 1.1//EN" "http://www.w3.org/Graphics/SVG/1.1/DTD/svg11.dtd"><svg width="100%" height="100%" viewBox="0 0 4000 4000" version="1.1" xmlns="http://www.w3.org/2000/svg" xmlns:xlink="http://www.w3.org/1999/xlink" xml:space="preserve" xmlns:serif="http://www.serif.com/" style="fill-rule:evenodd;clip-rule:evenodd;stroke-linejoin:round;stroke-miterlimit:2;"><circle cx="2000" cy="2000" r="2000" style="fill:#555aba;"/><g><g><rect x="583.635" y="583.635" width="2832.73" height="2832.73" style="fill:#fff;fill-opacity:0;"/><path d="M1173.79,937.727l1416.37,-0c194.249,-0 354.091,159.842 354.091,354.091l0,1416.36c0,194.249 -159.842,354.091 -354.091,354.091l-1416.37,0c-64.749,0 -118.03,-53.28 -118.03,-118.03l-0,-1888.49c-0,-64.75 53.281,-118.03 118.03,-118.03Zm1416.37,236.06l-1298.33,0l-0,1180.3l1298.33,0c40.265,0.319 80.182,7.504 118.03,21.246l0,-1083.52c0,-64.75 -53.281,-118.031 -118.03,-118.031Zm-0,1652.43c64.749,-0 118.03,-53.281 118.03,-118.031c0,-64.749 -53.281,-118.03 -118.03,-118.03l-1298.33,-0l-0,236.061l1298.33,-0Z" style="fill:#fff;fill-rule:nonzero;"/></g></g></svg>